<svg width="20" height="27" viewBox="0 0 20 27" fill="none" xmlns="http://www.w3.org/2000/svg">
<path id="Vector" d="M4.77273 4.79107C6.17639 3.07154 7.7562 1.52314 9.48295 0.174508C9.63581 0.0609273 9.81792 0 10.0045 0C10.1912 0 10.3733 0.0609273 10.5261 0.174508C12.2497 1.5237 13.8265 3.07208 15.2273 4.79107C18.3511 8.59642 20 12.6079 20 16.3928C20 19.206 18.9464 21.904 17.0711 23.8932C15.1957 25.8825 12.6522 27 10 27C7.34783 27 4.80429 25.8825 2.92893 23.8932C1.05357 21.904 0 19.206 0 16.3928C0 12.6079 1.64886 8.59642 4.77273 4.79107ZM3.65341 17.5186C3.88914 18.9152 4.52263 20.2018 5.46859 21.2049C6.41454 22.2081 7.62756 22.8798 8.94432 23.1296C8.99281 23.1378 9.0418 23.1422 9.09091 23.1428C9.31895 23.1428 9.53863 23.0518 9.7064 22.888C9.87417 22.7241 9.97776 22.4994 9.99664 22.2584C10.0155 22.0173 9.9483 21.7775 9.80832 21.5866C9.66834 21.3956 9.46581 21.2675 9.24091 21.2275C7.35795 20.8912 5.76023 19.1964 5.44091 17.1955C5.40052 16.9433 5.26733 16.7184 5.07063 16.5704C4.87393 16.4223 4.62984 16.3632 4.39204 16.406C4.15425 16.4488 3.94225 16.5901 3.80266 16.7988C3.66307 17.0074 3.60734 17.2663 3.64773 17.5186H3.65341Z" fill="#F8F8F8"/>
</svg>
