<svg width="9" height="13" viewBox="0 0 9 13" fill="none" xmlns="http://www.w3.org/2000/svg">
<path d="M1.83554e-06 10.2111V1.79117C-0.000478164 1.45875 0.0931925 1.133 0.270163 0.851614C0.447143 0.570226 0.700182 0.344709 1 0.201168C1.35575 0.0331351 1.75154 -0.031584 2.14223 0.0143849C2.53303 0.0603538 2.90293 0.215162 3.21003 0.461168L8.31003 4.67117C8.50063 4.83638 8.65353 5.04065 8.75833 5.27012C8.86313 5.49959 8.91733 5.7489 8.91733 6.00117C8.91733 6.25343 8.86313 6.50274 8.75833 6.73221C8.65353 6.96169 8.50063 7.16595 8.31003 7.33117L3.21003 11.5411C2.90293 11.7872 2.53303 11.942 2.14223 11.9879C1.75154 12.0339 1.35574 11.9692 1 11.8011C0.700182 11.6576 0.447143 11.4321 0.270163 11.1507C0.0931925 10.8693 -0.000478164 10.5436 1.83554e-06 10.2111Z" fill="#64AAFD"/>
</svg>