<svg width="24" height="18" viewBox="0 0 24 18" fill="none" xmlns="http://www.w3.org/2000/svg">
<g id="eva:arrow-up-fill">
<g id="evaArrowUpFill0">
<g id="evaArrowUpFill1">
<path id="evaArrowUpFill2" d="M8.00017 10.2099L8.00017 1.78995C7.99969 1.45753 8.09336 1.13178 8.27033 0.850393C8.44731 0.569005 8.70035 0.343488 9.00017 0.199947C9.35592 0.0319141 9.75171 -0.032805 10.1424 0.0131639C10.5332 0.0591328 10.9031 0.213941 11.2102 0.459947L16.3102 4.66995C16.5008 4.83516 16.6537 5.03943 16.7585 5.2689C16.8633 5.49837 16.9175 5.74768 16.9175 5.99995C16.9175 6.25221 16.8633 6.50152 16.7585 6.73099C16.6537 6.96047 16.5008 7.16473 16.3102 7.32995L11.2102 11.5399C10.9031 11.786 10.5332 11.9408 10.1424 11.9867C9.75171 12.0327 9.35591 11.968 9.00017 11.7999C8.70035 11.6564 8.44731 11.4309 8.27033 11.1495C8.09336 10.8681 7.99969 10.5424 8.00017 10.2099Z" fill="#64AAFD"/>
</g>
</g>
</g>
</svg>
