<svg width="128" height="128" viewBox="0 0 128 128" fill="none" xmlns="http://www.w3.org/2000/svg">
<g id="fav icon">
<g id="Group 19">
<path id="R" d="M62.4317 20C70.0564 20 76.2149 20.796 80.9071 22.388C85.683 23.8962 89.1603 26.5355 91.3388 30.306C93.6011 33.9927 94.7322 39.1457 94.7322 45.765C94.7322 49.7869 94.1876 53.3479 93.0983 56.4481C92.0929 59.4645 90.3752 61.8944 87.9453 63.7377C79.565 70.0952 80.7275 65.0711 86.8718 73.0225C88.2962 74.7821 89.7887 77.9399 90.459 80.9563L98 107.978H77.765L71.1038 81.5847C70.3497 78.7359 69.2185 76.7669 67.7104 75.6776C66.2859 74.5883 64.275 74.0437 61.6776 74.0437C55.9799 74.0437 51.1621 74.0437 47.224 74.0437C43.3697 73.9599 40.102 73.8761 37.4207 73.7924C34.8233 73.7086 32.4772 73.6248 30.3825 73.541C31.4037 35.7578 35.8754 71.218 29 21.2568C32.5191 20.8379 35.8287 20.5446 38.9289 20.3771C42.0291 20.2095 45.4226 20.1257 49.1093 20.1257C52.796 20.0419 57.2368 20 62.4317 20ZM47.9781 21.2568V107.978H29V21.2568H47.9781Z" fill="url(#paint0_linear_109_124)"/>
<path id="Vector" d="M68.6458 30.989C68.5572 30.8322 68.4299 30.7021 68.2765 30.6116C68.123 30.5211 67.949 30.4735 67.7719 30.4737H50.4513C50.2742 30.4735 50.1001 30.5211 49.9467 30.6116C49.7933 30.7021 49.666 30.8322 49.5774 30.989L40.9179 46.3233C40.8294 46.48 40.7828 46.6577 40.7828 46.8386C40.7828 47.0196 40.8294 47.1973 40.9179 47.354L49.5791 62.6882C49.6676 62.845 49.795 62.9752 49.9484 63.0657C50.1018 63.1562 50.2758 63.2037 50.4529 63.2036H67.7719C67.949 63.2037 68.123 63.1562 68.2765 63.0657C68.4299 62.9752 68.5572 62.845 68.6458 62.6882L77.3053 47.354C77.3938 47.1973 77.4404 47.0196 77.4404 46.8386C77.4404 46.6577 77.3938 46.48 77.3053 46.3233L68.6458 30.989Z" fill="#343232"/>
</g>
</g>
<defs>
<linearGradient id="paint0_linear_109_124" x1="63.5" y1="20" x2="63.5" y2="167.608" gradientUnits="userSpaceOnUse">
<stop stop-color="#64AAFD"/>
<stop offset="1" stop-color="#C53BBF"/>
</linearGradient>
</defs>
</svg>
