<svg width="532" height="489" viewBox="0 0 532 489" fill="none" xmlns="http://www.w3.org/2000/svg">
<path d="M60.4158 24.7348C60.8857 23.921 61.5616 23.2453 62.3755 22.7757C63.1895 22.3061 64.1128 22.0592 65.0525 22.0598H156.957C157.896 22.0592 158.82 22.3061 159.634 22.7757C160.447 23.2453 161.123 23.921 161.593 24.7348L207.541 104.325C208.01 105.138 208.258 106.061 208.258 107C208.258 107.939 208.01 108.862 207.541 109.675L161.584 189.265C161.114 190.079 160.439 190.755 159.625 191.224C158.811 191.694 157.887 191.941 156.948 191.94H65.0525C64.1128 191.941 63.1895 191.694 62.3755 191.224C61.5616 190.755 60.8857 190.079 60.4158 189.265L14.4682 109.675C13.9987 108.862 13.7515 107.939 13.7515 107C13.7515 106.061 13.9987 105.138 14.4682 104.325L60.4158 24.7348Z" stroke="#1E1E1E" stroke-opacity="0.34" stroke-width="1.5" stroke-linecap="round" stroke-linejoin="round"/>
<path d="M215.416 118.735C215.886 117.921 216.562 117.245 217.376 116.776C218.189 116.306 219.113 116.059 220.052 116.06H311.957C312.896 116.059 313.82 116.306 314.634 116.776C315.447 117.245 316.123 117.921 316.593 118.735L362.541 198.325C363.01 199.138 363.258 200.061 363.258 201C363.258 201.939 363.01 202.862 362.541 203.675L316.584 283.265C316.114 284.079 315.439 284.755 314.625 285.224C313.811 285.694 312.887 285.941 311.948 285.94H220.052C219.113 285.941 218.189 285.694 217.376 285.224C216.562 284.755 215.886 284.079 215.416 283.265L169.468 203.675C168.999 202.862 168.751 201.939 168.751 201C168.751 200.061 168.999 199.138 169.468 198.325L215.416 118.735Z" stroke="#1E1E1E" stroke-opacity="0.34" stroke-width="1.5" stroke-linecap="round" stroke-linejoin="round"/>
<path d="M372.416 24.7348C372.886 23.921 373.562 23.2453 374.376 22.7757C375.189 22.3061 376.113 22.0592 377.052 22.0598H468.957C469.896 22.0592 470.82 22.3061 471.634 22.7757C472.447 23.2453 473.123 23.921 473.593 24.7348L519.541 104.325C520.01 105.138 520.258 106.061 520.258 107C520.258 107.939 520.01 108.862 519.541 109.675L473.584 189.265C473.114 190.079 472.439 190.755 471.625 191.224C470.811 191.694 469.887 191.941 468.948 191.94H377.052C376.113 191.941 375.189 191.694 374.376 191.224C373.562 190.755 372.886 190.079 372.416 189.265L326.468 109.675C325.999 108.862 325.751 107.939 325.751 107C325.751 106.061 325.999 105.138 326.468 104.325L372.416 24.7348Z" stroke="#1E1E1E" stroke-opacity="0.34" stroke-width="1.5" stroke-linecap="round" stroke-linejoin="round"/>
<path d="M374.416 206.735C374.886 205.921 375.562 205.245 376.376 204.776C377.189 204.306 378.113 204.059 379.052 204.06H470.957C471.896 204.059 472.82 204.306 473.634 204.776C474.447 205.245 475.123 205.921 475.593 206.735L521.541 286.325C522.01 287.138 522.258 288.061 522.258 289C522.258 289.939 522.01 290.862 521.541 291.675L475.584 371.265C475.114 372.079 474.439 372.755 473.625 373.224C472.811 373.694 471.887 373.941 470.948 373.94H379.052C378.113 373.941 377.189 373.694 376.376 373.224C375.562 372.755 374.886 372.079 374.416 371.265L328.468 291.675C327.999 290.862 327.751 289.939 327.751 289C327.751 288.061 327.999 287.138 328.468 286.325L374.416 206.735Z" stroke="#1E1E1E" stroke-opacity="0.34" stroke-width="1.5" stroke-linecap="round" stroke-linejoin="round"/>
<path d="M215.416 299.735C215.886 298.921 216.562 298.245 217.376 297.776C218.189 297.306 219.113 297.059 220.052 297.06H311.957C312.896 297.059 313.82 297.306 314.634 297.776C315.447 298.245 316.123 298.921 316.593 299.735L362.541 379.325C363.01 380.138 363.258 381.061 363.258 382C363.258 382.939 363.01 383.862 362.541 384.675L316.584 464.265C316.114 465.079 315.439 465.755 314.625 466.224C313.811 466.694 312.887 466.941 311.948 466.94H220.052C219.113 466.941 218.189 466.694 217.376 466.224C216.562 465.755 215.886 465.079 215.416 464.265L169.468 384.675C168.999 383.862 168.751 382.939 168.751 382C168.751 381.061 168.999 380.138 169.468 379.325L215.416 299.735Z" stroke="#1E1E1E" stroke-opacity="0.34" stroke-width="1.5" stroke-linecap="round" stroke-linejoin="round"/>
<path d="M56.4158 206.735C56.8857 205.921 57.5616 205.245 58.3755 204.776C59.1895 204.306 60.1128 204.059 61.0525 204.06H152.957C153.896 204.059 154.82 204.306 155.634 204.776C156.447 205.245 157.123 205.921 157.593 206.735L203.541 286.325C204.01 287.138 204.258 288.061 204.258 289C204.258 289.939 204.01 290.862 203.541 291.675L157.584 371.265C157.114 372.079 156.439 372.755 155.625 373.224C154.811 373.694 153.887 373.941 152.948 373.94H61.0525C60.1128 373.941 59.1895 373.694 58.3755 373.224C57.5616 372.755 56.8857 372.079 56.4158 371.265L10.4682 291.675C9.99867 290.862 9.75146 289.939 9.75146 289C9.75146 288.061 9.99867 287.138 10.4682 286.325L56.4158 206.735Z" stroke="#1E1E1E" stroke-opacity="0.34" stroke-width="1.5" stroke-linecap="round" stroke-linejoin="round"/>
</svg>