<svg width="532" height="489" viewBox="0 0 532 489" fill="none" xmlns="http://www.w3.org/2000/svg">
<path d="M60.4157 24.7348C60.8855 23.921 61.5615 23.2453 62.3754 22.7757C63.1894 22.3061 64.1127 22.0592 65.0524 22.0598H156.956C157.896 22.0592 158.819 22.3061 159.633 22.7757C160.447 23.2453 161.123 23.921 161.593 24.7348L207.541 104.325C208.01 105.138 208.257 106.061 208.257 107C208.257 107.939 208.01 108.862 207.541 109.675L161.584 189.265C161.114 190.079 160.438 190.755 159.624 191.224C158.811 191.694 157.887 191.941 156.948 191.94H65.0524C64.1127 191.941 63.1894 191.694 62.3754 191.224C61.5615 190.755 60.8855 190.079 60.4157 189.265L14.4681 109.675C13.9985 108.862 13.7513 107.939 13.7513 107C13.7513 106.061 13.9985 105.138 14.4681 104.325L60.4157 24.7348Z" stroke="url(#paint0_linear_125_39)" stroke-width="1.5" stroke-linecap="round" stroke-linejoin="round"/>
<path d="M215.416 118.735C215.886 117.921 216.561 117.245 217.375 116.776C218.189 116.306 219.113 116.059 220.052 116.06H311.956C312.896 116.059 313.819 116.306 314.633 116.776C315.447 117.245 316.123 117.921 316.593 118.735L362.541 198.325C363.01 199.138 363.257 200.061 363.257 201C363.257 201.939 363.01 202.862 362.541 203.675L316.584 283.265C316.114 284.079 315.438 284.755 314.624 285.224C313.811 285.694 312.887 285.941 311.948 285.94H220.052C219.113 285.941 218.189 285.694 217.375 285.224C216.561 284.755 215.886 284.079 215.416 283.265L169.468 203.675C168.999 202.862 168.751 201.939 168.751 201C168.751 200.061 168.999 199.138 169.468 198.325L215.416 118.735Z" stroke="url(#paint1_linear_125_39)" stroke-width="1.5" stroke-linecap="round" stroke-linejoin="round"/>
<path d="M372.416 24.7348C372.886 23.921 373.561 23.2453 374.375 22.7757C375.189 22.3061 376.113 22.0592 377.052 22.0598H468.956C469.896 22.0592 470.819 22.3061 471.633 22.7757C472.447 23.2453 473.123 23.921 473.593 24.7348L519.541 104.325C520.01 105.138 520.257 106.061 520.257 107C520.257 107.939 520.01 108.862 519.541 109.675L473.584 189.265C473.114 190.079 472.438 190.755 471.624 191.224C470.811 191.694 469.887 191.941 468.948 191.94H377.052C376.113 191.941 375.189 191.694 374.375 191.224C373.561 190.755 372.886 190.079 372.416 189.265L326.468 109.675C325.999 108.862 325.751 107.939 325.751 107C325.751 106.061 325.999 105.138 326.468 104.325L372.416 24.7348Z" stroke="url(#paint2_linear_125_39)" stroke-width="1.5" stroke-linecap="round" stroke-linejoin="round"/>
<path d="M374.416 206.735C374.886 205.921 375.561 205.245 376.375 204.776C377.189 204.306 378.113 204.059 379.052 204.06H470.956C471.896 204.059 472.819 204.306 473.633 204.776C474.447 205.245 475.123 205.921 475.593 206.735L521.541 286.325C522.01 287.138 522.257 288.061 522.257 289C522.257 289.939 522.01 290.862 521.541 291.675L475.584 371.265C475.114 372.079 474.438 372.755 473.624 373.224C472.811 373.694 471.887 373.941 470.948 373.94H379.052C378.113 373.941 377.189 373.694 376.375 373.224C375.561 372.755 374.886 372.079 374.416 371.265L328.468 291.675C327.999 290.862 327.751 289.939 327.751 289C327.751 288.061 327.999 287.138 328.468 286.325L374.416 206.735Z" stroke="url(#paint3_linear_125_39)" stroke-width="1.5" stroke-linecap="round" stroke-linejoin="round"/>
<path d="M215.416 299.735C215.886 298.921 216.561 298.245 217.375 297.776C218.189 297.306 219.113 297.059 220.052 297.06H311.956C312.896 297.059 313.819 297.306 314.633 297.776C315.447 298.245 316.123 298.921 316.593 299.735L362.541 379.325C363.01 380.138 363.257 381.061 363.257 382C363.257 382.939 363.01 383.862 362.541 384.675L316.584 464.265C316.114 465.079 315.438 465.755 314.624 466.224C313.811 466.694 312.887 466.941 311.948 466.94H220.052C219.113 466.941 218.189 466.694 217.375 466.224C216.561 465.755 215.886 465.079 215.416 464.265L169.468 384.675C168.999 383.862 168.751 382.939 168.751 382C168.751 381.061 168.999 380.138 169.468 379.325L215.416 299.735Z" stroke="url(#paint4_linear_125_39)" stroke-width="1.5" stroke-linecap="round" stroke-linejoin="round"/>
<path d="M56.4157 206.735C56.8855 205.921 57.5615 205.245 58.3754 204.776C59.1894 204.306 60.1127 204.059 61.0524 204.06H152.956C153.896 204.059 154.819 204.306 155.633 204.776C156.447 205.245 157.123 205.921 157.593 206.735L203.541 286.325C204.01 287.138 204.257 288.061 204.257 289C204.257 289.939 204.01 290.862 203.541 291.675L157.584 371.265C157.114 372.079 156.438 372.755 155.624 373.224C154.811 373.694 153.887 373.941 152.948 373.94H61.0524C60.1127 373.941 59.1894 373.694 58.3754 373.224C57.5615 372.755 56.8855 372.079 56.4157 371.265L10.4681 291.675C9.99855 290.862 9.75134 289.939 9.75134 289C9.75134 288.061 9.99855 287.138 10.4681 286.325L56.4157 206.735Z" stroke="url(#paint5_linear_125_39)" stroke-width="1.5" stroke-linecap="round" stroke-linejoin="round"/>
<defs>
<linearGradient id="paint0_linear_125_39" x1="111.004" y1="22.0598" x2="111.004" y2="307.081" gradientUnits="userSpaceOnUse">
<stop stop-color="#64AAFD"/>
<stop offset="1" stop-color="#C53BBF"/>
</linearGradient>
<linearGradient id="paint1_linear_125_39" x1="266.004" y1="116.06" x2="266.004" y2="401.081" gradientUnits="userSpaceOnUse">
<stop stop-color="#64AAFD"/>
<stop offset="1" stop-color="#C53BBF"/>
</linearGradient>
<linearGradient id="paint2_linear_125_39" x1="423.004" y1="22.0598" x2="423.004" y2="307.081" gradientUnits="userSpaceOnUse">
<stop stop-color="#64AAFD"/>
<stop offset="1" stop-color="#C53BBF"/>
</linearGradient>
<linearGradient id="paint3_linear_125_39" x1="425.004" y1="204.06" x2="425.004" y2="489.081" gradientUnits="userSpaceOnUse">
<stop stop-color="#64AAFD"/>
<stop offset="1" stop-color="#C53BBF"/>
</linearGradient>
<linearGradient id="paint4_linear_125_39" x1="266.004" y1="297.06" x2="266.004" y2="582.081" gradientUnits="userSpaceOnUse">
<stop stop-color="#64AAFD"/>
<stop offset="1" stop-color="#C53BBF"/>
</linearGradient>
<linearGradient id="paint5_linear_125_39" x1="107.004" y1="204.06" x2="107.004" y2="489.081" gradientUnits="userSpaceOnUse">
<stop stop-color="#64AAFD"/>
<stop offset="1" stop-color="#C53BBF"/>
</linearGradient>
</defs>
</svg>
