<svg width="278" height="359" viewBox="0 0 278 359" fill="none" xmlns="http://www.w3.org/2000/svg">
<path d="M60.4158 -40.2652C60.8856 -41.079 61.5615 -41.7547 62.3755 -42.2243C63.1894 -42.6939 64.1127 -42.9408 65.0524 -42.9402H156.957C157.896 -42.9408 158.819 -42.6939 159.633 -42.2243C160.447 -41.7547 161.123 -41.079 161.593 -40.2652L207.541 39.325C208.01 40.1383 208.258 41.0609 208.258 42C208.258 42.9391 208.01 43.8617 207.541 44.675L161.584 124.265C161.114 125.079 160.439 125.755 159.625 126.224C158.811 126.694 157.887 126.941 156.948 126.94H65.0524C64.1127 126.941 63.1894 126.694 62.3755 126.224C61.5615 125.755 60.8856 125.079 60.4158 124.265L14.4682 44.675C13.9986 43.8617 13.7514 42.9391 13.7514 42C13.7514 41.0609 13.9986 40.1383 14.4682 39.325L60.4158 -40.2652Z" stroke="#1E1E1E" stroke-opacity="0.34" stroke-width="1.5" stroke-linecap="round" stroke-linejoin="round"/>
<path d="M215.416 53.7348C215.886 52.921 216.562 52.2453 217.375 51.7757C218.189 51.3061 219.113 51.0592 220.052 51.0598H311.957C312.896 51.0592 313.819 51.3061 314.633 51.7757C315.447 52.2453 316.123 52.921 316.593 53.7348L362.541 133.325C363.01 134.138 363.258 135.061 363.258 136C363.258 136.939 363.01 137.862 362.541 138.675L316.584 218.265C316.114 219.079 315.439 219.755 314.625 220.224C313.811 220.694 312.887 220.941 311.948 220.94H220.052C219.113 220.941 218.189 220.694 217.375 220.224C216.562 219.755 215.886 219.079 215.416 218.265L169.468 138.675C168.999 137.862 168.751 136.939 168.751 136C168.751 135.061 168.999 134.138 169.468 133.325L215.416 53.7348Z" stroke="#1E1E1E" stroke-opacity="0.34" stroke-width="1.5" stroke-linecap="round" stroke-linejoin="round"/>
<path d="M215.416 234.735C215.886 233.921 216.562 233.245 217.375 232.776C218.189 232.306 219.113 232.059 220.052 232.06H311.957C312.896 232.059 313.819 232.306 314.633 232.776C315.447 233.245 316.123 233.921 316.593 234.735L362.541 314.325C363.01 315.138 363.258 316.061 363.258 317C363.258 317.939 363.01 318.862 362.541 319.675L316.584 399.265C316.114 400.079 315.439 400.755 314.625 401.224C313.811 401.694 312.887 401.941 311.948 401.94H220.052C219.113 401.941 218.189 401.694 217.375 401.224C216.562 400.755 215.886 400.079 215.416 399.265L169.468 319.675C168.999 318.862 168.751 317.939 168.751 317C168.751 316.061 168.999 315.138 169.468 314.325L215.416 234.735Z" stroke="#1E1E1E" stroke-opacity="0.34" stroke-width="1.5" stroke-linecap="round" stroke-linejoin="round"/>
<path d="M56.4158 141.735C56.8856 140.921 57.5615 140.245 58.3755 139.776C59.1894 139.306 60.1127 139.059 61.0524 139.06H152.957C153.896 139.059 154.819 139.306 155.633 139.776C156.447 140.245 157.123 140.921 157.593 141.735L203.541 221.325C204.01 222.138 204.258 223.061 204.258 224C204.258 224.939 204.01 225.862 203.541 226.675L157.584 306.265C157.114 307.079 156.439 307.755 155.625 308.224C154.811 308.694 153.887 308.941 152.948 308.94H61.0524C60.1127 308.941 59.1894 308.694 58.3755 308.224C57.5615 307.755 56.8856 307.079 56.4158 306.265L10.4682 226.675C9.99861 225.862 9.7514 224.939 9.7514 224C9.7514 223.061 9.99861 222.138 10.4682 221.325L56.4158 141.735Z" stroke="#1E1E1E" stroke-opacity="0.34" stroke-width="1.5" stroke-linecap="round" stroke-linejoin="round"/>
</svg>