<svg width="69" height="79" viewBox="0 0 69 79" fill="none" xmlns="http://www.w3.org/2000/svg">
<g id="emojione:hand-with-fingers-splayed-medium-light-skin-tone">
<path id="Vector" d="M36.333 51.8755L44.6605 53.7069L51.4934 13.5392C51.9204 10.8532 50.4257 8.16725 48.1837 7.67889C45.8349 7.19052 43.5929 9.02188 43.1658 11.7079L36.333 51.8755Z" fill="url(#paint0_linear_151_199)"/>
<path id="Vector_2" d="M48.2906 7.67885C47.9703 7.55676 47.7568 7.55676 47.4365 7.55676C49.3583 8.41139 50.4259 10.7311 49.9988 13.1729L43.166 53.3406L44.6607 53.7068L51.4935 13.5392C52.0273 10.7311 50.5327 8.16721 48.2906 7.67885Z" fill="white"/>
<path id="Vector_3" d="M27.792 53.0963H37.8277V8.7776C37.8277 5.48117 35.5857 2.6731 32.8099 2.6731C30.1408 2.6731 27.792 5.35908 27.792 8.7776V53.0963Z" fill="url(#paint1_linear_151_199)"/>
<path id="Vector_4" d="M32.9163 2.6731C32.7028 2.6731 32.3825 2.6731 32.1689 2.79519C34.6245 3.28355 36.4395 5.72535 36.4395 8.7776V53.2184H37.9341V8.7776C37.9341 5.35908 35.6921 2.6731 32.9163 2.6731Z" fill="white"/>
<path id="Vector_5" d="M22.4539 52.9744L30.9949 50.4105L21.7065 9.99869C21.0659 7.19062 18.6104 5.48135 16.2616 6.0918C13.9128 6.82435 12.5249 9.63242 13.1655 12.4405L22.4539 52.9744Z" fill="url(#paint2_linear_151_199)"/>
<path id="Vector_6" d="M16.2617 6.0918L15.6211 6.45807C17.7564 6.33598 19.6781 7.92316 20.3187 10.487L29.607 50.8989L31.1017 50.4105L21.7066 9.99869C21.066 7.19062 18.6105 5.48135 16.2617 6.0918Z" fill="white"/>
<path id="Vector_7" d="M4.30402 16.5915C2.27553 17.6903 1.63495 20.6205 2.70258 23.0623L16.7953 55.172L23.9484 51.0209L9.8557 18.9112C8.78807 16.4694 6.33252 15.4927 4.30402 16.5915Z" fill="url(#paint3_linear_151_199)"/>
<path id="Vector_8" d="M4.30415 16.5915C4.09063 16.7136 3.8771 16.8357 3.66357 17.0799C5.47854 16.4694 7.50704 17.5682 8.46791 19.7659L22.5606 51.8756L23.9485 51.143L9.85583 18.9112C8.7882 16.4694 6.33265 15.4927 4.30415 16.5915Z" fill="white"/>
<path id="Vector_9" d="M65.9063 36.0038C64.1981 32.219 58.8599 32.4632 53.415 39.3002C49.5715 44.0617 48.8242 45.6489 44.9807 45.5268V40.5211C44.9807 40.5211 36.76 33.562 20.4252 36.7363C20.4252 36.7363 11.1369 38.2014 11.1369 43.8176C11.1369 43.8176 9.53541 57.3696 12.8451 65.9159C17.7562 78.6133 42.9522 81.9097 50.8527 60.2997C52.4541 56.0266 55.657 52.8522 58.5396 48.8233C61.8493 43.9397 67.7212 40.0328 65.9063 36.0038Z" fill="url(#paint4_linear_151_199)"/>
<path id="Vector_10" d="M65.9062 36.0038C65.5859 35.2713 65.1589 34.7829 64.6251 34.2946C64.7318 34.4166 64.8386 34.5387 64.8386 34.7829C66.6535 38.934 60.7816 42.7188 57.2584 47.6024C54.3758 51.6314 51.1729 54.8057 49.5715 59.0789C42.7386 77.7587 22.8807 77.7587 14.5532 69.2123C22.1334 78.9796 43.486 79.9563 50.6391 60.2998C52.2406 56.0266 55.4434 52.8523 58.326 48.8233C61.8492 43.9397 67.7212 40.0328 65.9062 36.0038ZM46.0483 45.5269C39.1087 42.5967 26.7242 47.9687 28.4324 62.2532C28.4324 48.9454 39.0019 45.6489 44.7671 45.6489C45.6212 45.5269 46.0483 45.5269 46.0483 45.5269Z" fill="white"/>
</g>
<defs>
<linearGradient id="paint0_linear_151_199" x1="43.9496" y1="7.59997" x2="43.9496" y2="84.9571" gradientUnits="userSpaceOnUse">
<stop stop-color="#64AAFD"/>
<stop offset="1" stop-color="#C53BBF"/>
</linearGradient>
<linearGradient id="paint1_linear_151_199" x1="32.8099" y1="2.67309" x2="32.8097" y2="87.2721" gradientUnits="userSpaceOnUse">
<stop stop-color="#64AAFD"/>
<stop offset="1" stop-color="#C53BBF"/>
</linearGradient>
<linearGradient id="paint2_linear_151_199" x1="22.0021" y1="5.96838" x2="22.002" y2="84.8341" gradientUnits="userSpaceOnUse">
<stop stop-color="#64AAFD"/>
<stop offset="1" stop-color="#C53BBF"/>
</linearGradient>
<linearGradient id="paint3_linear_151_199" x1="13.0702" y1="16.1432" x2="13.0701" y2="81.6249" gradientUnits="userSpaceOnUse">
<stop stop-color="#64AAFD"/>
<stop offset="1" stop-color="#C53BBF"/>
</linearGradient>
<linearGradient id="paint4_linear_151_199" x1="38.4982" y1="33.5566" x2="38.4982" y2="104.747" gradientUnits="userSpaceOnUse">
<stop stop-color="#64AAFD"/>
<stop offset="1" stop-color="#C53BBF"/>
</linearGradient>
</defs>
</svg>
