<svg width="55" height="56" viewBox="0 0 55 56" fill="none" xmlns="http://www.w3.org/2000/svg">
<g id="emojione:raised-fist">
<g id="Group">
<path id="Vector" d="M45.4433 21.4013L25.4473 12.1266L3.3241 19.4443C3.3241 19.4443 2.04776 28.9743 3.3241 38.7595C5.28115 53.9905 21.6183 51.3528 21.6183 51.3528C33.2755 56.6283 44.9328 51.6931 50.2934 39.0148C52.2504 34.3349 52.5057 21.3162 45.4433 21.4013Z" fill="url(#paint0_linear_151_163)"/>
<path id="Vector_2" d="M3.40918 14.9345C3.40918 11.531 5.96186 8.80811 9.19525 8.80811H9.28034C12.4286 8.80811 15.0664 11.531 15.0664 14.9345V24.3794C15.0664 27.783 12.5137 30.5059 9.28034 30.5059H9.19525C5.96186 30.5059 3.40918 27.783 3.40918 24.3794V14.9345Z" fill="url(#paint1_linear_151_163)"/>
</g>
<path id="Vector_3" d="M7.49318 28.2085C10.7266 28.2085 13.2793 25.4856 13.2793 22.1672V12.7222C13.2793 11.7863 13.024 10.8503 12.6836 10.0845C14.3003 11.1906 14.981 13.0626 14.981 15.0197V24.4646C14.981 27.8681 12.5135 30.5059 9.28006 30.5059H9.19497C6.89756 30.5059 4.85542 29.0594 3.91943 26.9322C4.94051 27.698 6.21684 28.2085 7.49318 28.2085Z" fill="white"/>
<path id="Vector_4" d="M14.896 9.48886C14.896 6.08528 17.4487 3.36243 20.6821 3.36243H20.7672C24.0006 3.36243 26.5532 6.08528 26.5532 9.48886V18.9338C26.5532 22.3373 24.0006 25.0602 20.7672 25.0602H20.6821C17.4487 25.0602 14.896 22.3373 14.896 18.9338V9.48886Z" fill="url(#paint2_linear_151_163)"/>
<path id="Vector_5" d="M18.9805 22.7627C22.2139 22.7627 24.7666 20.1249 24.7666 16.7214V7.27645C24.7666 6.34046 24.5113 5.40448 24.1709 4.55359C25.8727 5.91502 26.4683 7.53171 26.4683 9.57386V19.0188C26.4683 22.4223 23.9157 24.975 20.7674 24.975H20.6823C18.3849 24.975 16.3427 23.5285 15.4067 21.4013C16.4278 22.2522 17.7041 22.7627 18.9805 22.7627Z" fill="white"/>
<path id="Vector_6" d="M26.5532 8.80807C26.5532 5.4045 29.1059 2.68164 32.3393 2.68164H32.4244C35.5727 2.68164 38.2105 5.4045 38.2105 8.80807V18.253C38.2105 21.6566 35.6578 24.3794 32.4244 24.3794H32.3393C29.1059 24.3794 26.5532 21.6566 26.5532 18.253V8.80807Z" fill="url(#paint3_linear_151_163)"/>
<path id="Vector_7" d="M30.6377 22.082C33.8711 22.082 36.4238 19.4443 36.4238 16.0407V6.59578C36.4238 5.65979 36.2536 4.72381 35.9133 3.95801C37.615 5.23435 38.2107 6.93613 38.2107 8.89319V18.3381C38.2107 21.7417 35.658 24.2943 32.4246 24.2943H32.3395C30.0421 24.2943 27.9999 22.8478 27.064 20.7206C28.085 21.5715 29.2763 22.082 30.6377 22.082Z" fill="white"/>
<path id="Vector_8" d="M37.9552 11.8713C37.9552 8.46773 40.5079 5.74487 43.7413 5.74487H43.8264C47.0598 5.74487 49.6124 8.46773 49.6124 11.8713V21.3162C49.6124 24.7198 47.0598 27.4426 43.8264 27.4426H43.6562C40.4228 27.4426 37.8701 24.7198 37.8701 21.3162V11.8713H37.9552Z" fill="url(#paint4_linear_151_163)"/>
<g id="Group_2">
<path id="Vector_9" d="M42.1247 25.1453C45.3581 25.1453 47.8257 22.4224 47.8257 19.1039V9.65901C47.8257 8.72303 47.6555 7.78704 47.3151 7.02124C49.102 8.29758 49.6126 9.99937 49.6126 11.9564V21.4013C49.6126 24.8049 47.145 27.4427 43.9967 27.4427H43.9116C41.6142 27.4427 39.572 25.9962 38.636 23.8689C39.572 24.6347 40.7633 25.1453 42.1247 25.1453ZM35.6579 28.4637C30.8078 26.0812 19.9164 30.1655 22.0436 40.3762C22.0436 29.7401 31.4885 27.9532 35.6579 28.4637Z" fill="white"/>
<path id="Vector_10" d="M37.7853 15.445C33.2756 12.2967 31.8291 16.381 23.6605 15.8705C20.0867 15.6152 17.7042 22.3373 22.8096 25.4005C29.872 29.5699 31.0632 24.7198 32.6799 26.847C34.3817 29.0593 36.1686 29.655 37.53 32.1226C38.5511 33.9094 48.1662 32.2076 49.5276 28.8041C52.2505 22.2522 44.8477 20.4653 37.7853 15.445Z" fill="white"/>
</g>
<path id="Vector_11" d="M38.2958 16.7214C33.6159 13.488 32.1694 17.7424 23.6604 17.1468C19.9165 16.8915 17.4489 23.8689 22.8095 27.0172C30.2123 31.3567 31.4036 26.3365 33.1053 28.5488C34.8922 30.8462 36.7642 31.4418 38.1256 34.0796C39.1467 35.9515 35.0624 42.4183 35.0624 42.4183C35.0624 42.4183 43.9117 49.6509 46.2942 46.2474C50.7188 39.9507 50.2934 34.5901 50.6337 30.676C51.3145 21.5715 45.6135 21.9118 38.2958 16.7214Z" fill="url(#paint5_linear_151_163)"/>
<g id="Group_3">
<path id="Vector_12" d="M36.934 34.0796C37.2744 34.6752 37.1042 35.6963 36.6787 36.8025C37.4445 35.1007 38.0402 33.3138 37.6147 32.4629C36.1682 29.8251 35.3173 29.2295 33.5304 26.9321C31.8286 24.7198 30.6374 29.8251 23.2346 25.4005C20.5118 23.7838 19.8311 21.146 20.3416 19.0188C18.9802 21.2311 19.0653 24.975 22.5539 27.0172C29.9567 31.3567 31.1479 26.3365 32.8497 28.5488C34.6366 30.9313 35.4875 31.5269 36.934 34.0796Z" fill="white"/>
<path id="Vector_13" d="M47.5703 22.1671C52.2502 24.9751 50.6335 37.8235 46.294 43.6096C39.4868 52.7142 30.5525 52.6291 21.6181 50.8422C21.6181 50.8422 10.8117 53.8203 4.51514 43.6096C8.42924 54.416 21.6181 52.2036 21.6181 52.2036C31.063 55.0967 40.2526 54.416 47.4852 45.0561C52.1651 39.0999 54.9731 24.5496 47.5703 22.1671Z" fill="white"/>
</g>
</g>
<defs>
<linearGradient id="paint0_linear_151_163" x1="27.1201" y1="12.1266" x2="27.1201" y2="81.4442" gradientUnits="userSpaceOnUse">
<stop stop-color="#64AAFD"/>
<stop offset="1" stop-color="#C53BBF"/>
</linearGradient>
<linearGradient id="paint1_linear_151_163" x1="9.2378" y1="8.8081" x2="9.23778" y2="45.2121" gradientUnits="userSpaceOnUse">
<stop stop-color="#64AAFD"/>
<stop offset="1" stop-color="#C53BBF"/>
</linearGradient>
<linearGradient id="paint2_linear_151_163" x1="20.7246" y1="3.36243" x2="20.7246" y2="39.7665" gradientUnits="userSpaceOnUse">
<stop stop-color="#64AAFD"/>
<stop offset="1" stop-color="#C53BBF"/>
</linearGradient>
<linearGradient id="paint3_linear_151_163" x1="32.3818" y1="2.68164" x2="32.3818" y2="39.0857" gradientUnits="userSpaceOnUse">
<stop stop-color="#64AAFD"/>
<stop offset="1" stop-color="#C53BBF"/>
</linearGradient>
<linearGradient id="paint4_linear_151_163" x1="43.7413" y1="5.74487" x2="43.7413" y2="42.1489" gradientUnits="userSpaceOnUse">
<stop stop-color="#64AAFD"/>
<stop offset="1" stop-color="#C53BBF"/>
</linearGradient>
<linearGradient id="paint5_linear_151_163" x1="35.2004" y1="15.4956" x2="35.2004" y2="68.6182" gradientUnits="userSpaceOnUse">
<stop stop-color="#64AAFD"/>
<stop offset="1" stop-color="#C53BBF"/>
</linearGradient>
</defs>
</svg>
