<svg width="79" height="79" viewBox="0 0 79 79" fill="none" xmlns="http://www.w3.org/2000/svg">
<g id="emojione:victory-hand-medium-light-skin-tone">
<path id="Vector" d="M45.82 39.1787C45.2059 41.8807 46.9253 44.7055 49.7501 45.3196C52.5749 45.9337 55.3997 44.2143 56.0138 41.5123L63.5057 9.33407C64.1198 6.63209 62.4003 3.80728 59.5755 3.1932C56.7507 2.57911 53.9259 4.29855 53.3118 7.00054L45.82 39.1787Z" fill="url(#paint0_linear_151_181)"/>
<path id="Vector_2" d="M47.785 43.723C50.7326 44.3371 53.4346 42.6176 54.1715 39.9156L61.6634 7.73743C62.0319 6.26362 61.6634 4.78981 60.8037 3.68445C63.3828 4.78981 64.2426 7.00052 63.7513 9.45687L56.2594 41.6351C55.6453 44.3371 52.8205 46.1793 49.9957 45.4424C48.6447 45.1968 47.6622 44.4599 46.9253 43.4773C47.0481 43.4773 47.4166 43.6002 47.785 43.723Z" fill="white"/>
<g id="Group">
<path id="Vector_3" d="M55.5227 42.3719C55.5227 42.3719 44.8375 31.8096 25.9236 37.0908C25.9236 37.0908 14.7472 39.0559 15.3613 44.7055C15.3613 44.7055 14.9929 58.7067 19.7828 67.0583C27.029 79.4628 54.9086 81.4279 61.9092 58.461C63.383 53.9168 62.2776 41.635 55.5227 42.3719Z" fill="url(#paint1_linear_151_181)"/>
<path id="Vector_4" d="M36.4858 41.021C36.9771 43.8458 39.8019 45.5652 42.6267 45.074C45.4515 44.5827 47.4166 41.8807 46.9253 39.0559L40.7844 6.63205C40.2931 3.80724 37.4683 2.0878 34.6435 2.57907C31.8187 3.07034 29.8536 5.77232 30.4677 8.59713L36.4858 41.021Z" fill="url(#paint2_linear_151_181)"/>
</g>
<path id="Vector_5" d="M40.0474 44.3372C42.995 43.8459 44.8373 41.144 44.346 38.3191L38.2051 5.89531C37.8367 4.4215 36.8542 3.19333 35.626 2.45642C38.328 2.45642 40.293 4.17587 40.7843 6.63222L46.9252 39.0561C47.4165 41.8809 45.5742 44.5828 42.7494 45.0741C41.3984 45.3198 40.1702 45.0741 39.0649 44.46C39.3105 44.46 39.679 44.46 40.0474 44.3372Z" fill="white"/>
<g id="Group_2">
<path id="Vector_6" d="M14.7472 39.4243C14.3788 36.5995 16.4667 34.0204 19.4143 33.6519H19.5371C22.3619 33.4063 25.0639 35.3714 25.3095 38.319L26.1693 46.3021C26.5377 49.1269 24.4498 51.7061 21.5022 52.0745H21.3794C18.4318 52.3202 15.8526 50.3551 15.607 47.4075L14.7472 39.4243Z" fill="url(#paint3_linear_151_181)"/>
<path id="Vector_7" d="M24.6955 33.652C24.327 30.8272 26.4149 28.248 29.3625 27.8796H29.4854C32.433 27.6339 35.0121 29.599 35.2578 32.5466L36.1175 40.5298C36.486 43.3546 34.3981 45.9338 31.4504 46.3022H31.3276C28.38 46.5478 25.8008 44.5828 25.5552 41.6351L24.6955 33.652Z" fill="url(#paint4_linear_151_181)"/>
</g>
<g id="Group_3">
<path id="Vector_8" d="M19.7824 50.3552C22.73 49.9867 24.6951 47.5304 24.4494 44.5827L23.5897 36.5996C23.4669 35.8627 23.0984 35.003 22.73 34.2661C24.5722 35.1258 25.1863 36.5996 25.432 38.319L26.2917 46.3022C26.6601 49.127 24.5722 51.7062 21.7474 51.9518C19.6595 52.1974 17.6945 51.0921 16.7119 49.4954C17.4488 50.1095 18.5542 50.478 19.7824 50.3552ZM29.6078 44.5827C32.5554 44.2143 34.6433 41.7579 34.2748 38.9331L33.4151 30.95C33.2923 30.2131 32.9238 29.2305 32.5554 28.6165C34.2748 29.599 35.0117 31.0728 35.2574 32.7923L36.1171 40.7754C36.4855 43.6002 34.3976 46.0566 31.45 46.425H31.3272C29.2393 46.6706 27.2742 45.5653 26.2917 43.9687C27.2742 44.4599 28.3796 44.7056 29.6078 44.5827ZM50.8552 50.1095C44.96 47.2847 31.5728 52.1974 34.2748 64.4792C34.2748 51.7062 45.8197 49.4954 50.8552 50.1095Z" fill="white"/>
<path id="Vector_9" d="M48.6448 37.4594C44.3462 34.8802 43.6093 38.9332 36.3631 39.1789C33.1698 39.3017 31.8188 45.811 36.6087 48.1445C43.2408 51.4606 43.7321 46.7935 45.4516 48.6358C47.171 50.6009 48.7676 50.9693 50.2415 53.1801C51.3468 54.7767 59.5756 52.3203 60.4353 49.0043C62.0319 42.4949 55.277 41.5124 48.6448 37.4594Z" fill="white"/>
</g>
<path id="Vector_10" d="M49.1362 38.5646C44.7147 35.9855 43.855 40.0384 36.3631 40.2841C33.0471 40.4069 31.5733 47.1619 36.6088 49.6182C43.4866 53.0571 44.1006 48.1444 45.6973 50.1095C47.5395 52.0746 49.1362 52.5658 50.7328 54.8994C51.8382 56.6188 48.8905 63.0053 48.8905 63.0053C48.8905 63.0053 57.3649 69.0234 59.0844 65.5845C62.2776 59.198 61.4179 54.2853 61.2951 50.6008C61.0495 41.8807 56.1368 42.7404 49.1362 38.5646Z" fill="url(#paint5_linear_151_181)"/>
<g id="Group_4">
<path id="Vector_11" d="M57.6103 42.8633C62.2774 45.074 62.0317 57.2329 58.5928 63.1282C49.8728 77.7435 30.7132 77.4978 21.7476 69.6375C30.0992 78.6032 50.4869 79.4629 59.9438 64.3564C63.7512 58.3383 64.9793 44.3371 57.6103 42.8633Z" fill="white"/>
<path id="Vector_12" d="M49.7504 55.0223C50.1188 55.5135 49.996 56.4961 49.8732 57.6015C50.3645 55.882 50.7329 54.1626 50.2416 53.4257C48.7678 51.0921 47.9081 50.6008 46.0658 48.6358C44.3464 46.7935 43.8551 51.5834 36.9773 48.1445C34.3982 46.9163 33.5384 44.46 33.7841 42.3721C32.8015 44.5828 33.2928 48.0217 36.6089 49.7411C43.4867 53.18 44.1008 48.2673 45.6974 50.2324C47.4168 52.1975 48.2766 52.6887 49.7504 55.0223Z" fill="white"/>
</g>
</g>
<defs>
<linearGradient id="paint0_linear_151_181" x1="54.6628" y1="3.06872" x2="54.6628" y2="74.1652" gradientUnits="userSpaceOnUse">
<stop stop-color="#64AAFD"/>
<stop offset="1" stop-color="#C53BBF"/>
</linearGradient>
<linearGradient id="paint1_linear_151_181" x1="38.91" y1="35.6121" x2="38.9099" y2="103.612" gradientUnits="userSpaceOnUse">
<stop stop-color="#64AAFD"/>
<stop offset="1" stop-color="#C53BBF"/>
</linearGradient>
<linearGradient id="paint2_linear_151_181" x1="38.6778" y1="2.4956" x2="38.6778" y2="74.0726" gradientUnits="userSpaceOnUse">
<stop stop-color="#64AAFD"/>
<stop offset="1" stop-color="#C53BBF"/>
</linearGradient>
<linearGradient id="paint3_linear_151_181" x1="20.4582" y1="33.6312" x2="20.4582" y2="64.6097" gradientUnits="userSpaceOnUse">
<stop stop-color="#64AAFD"/>
<stop offset="1" stop-color="#C53BBF"/>
</linearGradient>
<linearGradient id="paint4_linear_151_181" x1="30.4065" y1="27.8589" x2="30.4065" y2="58.8374" gradientUnits="userSpaceOnUse">
<stop stop-color="#64AAFD"/>
<stop offset="1" stop-color="#C53BBF"/>
</linearGradient>
<linearGradient id="paint5_linear_151_181" x1="47.4145" y1="37.7093" x2="47.4145" y2="86.2584" gradientUnits="userSpaceOnUse">
<stop stop-color="#64AAFD"/>
<stop offset="1" stop-color="#C53BBF"/>
</linearGradient>
</defs>
</svg>
