<svg width="41" height="41" viewBox="0 0 41 41" fill="none" xmlns="http://www.w3.org/2000/svg">
<g id="fluent:sparkle-16-filled">
<path id="Vector" d="M14.0041 25.1894C14.4045 25.4746 14.8839 25.6276 15.3755 25.6271C15.867 25.6267 16.3462 25.4728 16.746 25.1868C17.1477 24.8904 17.452 24.4809 17.6198 24.0107L18.509 21.2765C18.7219 20.6321 19.0826 20.0465 19.5623 19.5664C20.0419 19.0863 20.6272 18.7251 21.2714 18.5115L24.0543 17.607C24.521 17.4396 24.9232 17.1298 25.2043 16.7213C25.4853 16.3128 25.6309 15.8264 25.6204 15.3307C25.6099 14.835 25.4439 14.3551 25.1459 13.9589C24.8478 13.5627 24.4328 13.2701 23.9595 13.1226L21.2201 12.236C20.5755 12.023 19.9895 11.6624 19.509 11.1827C19.0285 10.7031 18.6668 10.1178 18.4526 9.4736L17.5481 6.69585C17.3849 6.23651 17.0829 5.8393 16.6839 5.55923C16.2849 5.27917 15.8087 5.13011 15.3213 5.13272C14.8271 5.13062 14.3448 5.28386 13.9424 5.57079C13.5401 5.85772 13.2381 6.26383 13.0791 6.73172L12.1668 9.52485C11.9526 10.15 11.5998 10.7186 11.1347 11.1881C10.6696 11.6576 10.1044 12.0158 9.48133 12.236L6.70358 13.1354C6.23953 13.2994 5.8382 13.6041 5.55551 14.007C5.27282 14.4099 5.12286 14.8909 5.12653 15.3831C5.1302 15.8752 5.28731 16.354 5.57596 16.7526C5.86462 17.1513 6.27045 17.4499 6.73689 17.607L9.47108 18.4962C10.1164 18.7122 10.7027 19.0754 11.1834 19.5571C11.6642 20.0387 12.0263 20.6256 12.2411 21.2713L13.1431 24.0388C13.3046 24.5001 13.607 24.9024 14.0067 25.1868L14.0041 25.1894ZM26.996 35.4932C27.3438 35.7392 27.7591 35.8717 28.185 35.8725C28.615 35.867 29.0328 35.7286 29.381 35.4763C29.7293 35.224 29.9909 34.87 30.13 34.4631L30.7655 32.5105C30.8991 32.1038 31.1264 31.7342 31.429 31.4316C31.7317 31.1289 32.1013 30.9016 32.508 30.768L34.4862 30.1222C34.8954 29.9819 35.2497 29.7158 35.4984 29.3619C35.7472 29.008 35.8776 28.5846 35.8711 28.1521C35.8645 27.7196 35.7213 27.3002 35.462 26.954C35.2027 26.6078 34.8405 26.3525 34.4273 26.2247L32.4695 25.5866C32.0644 25.4517 31.6961 25.2246 31.3937 24.9231C31.0913 24.6216 30.8631 24.254 30.727 23.8492L30.0813 21.8658C29.9423 21.4585 29.6787 21.1053 29.3278 20.8561C28.9769 20.607 28.5565 20.4746 28.1262 20.4777C27.6958 20.4808 27.2774 20.6193 26.9301 20.8735C26.5828 21.1277 26.3244 21.4847 26.1914 21.894L25.5585 23.8467C25.4274 24.2478 25.2057 24.6134 24.9107 24.9151C24.6156 25.2168 24.2551 25.4466 23.857 25.5866L21.8685 26.2349C21.5675 26.3396 21.295 26.5129 21.0727 26.7413C20.8504 26.9696 20.6844 27.2467 20.5879 27.5504C20.4914 27.8541 20.4671 28.1761 20.5167 28.4909C20.5664 28.8057 20.6888 29.1045 20.8742 29.3637C21.1279 29.7225 21.4866 29.9915 21.8992 30.1325L23.8544 30.7654C24.261 30.9014 24.6303 31.1304 24.9328 31.4343C25.2353 31.7381 25.4627 32.1084 25.5969 32.5156L26.2452 34.499C26.3856 34.8999 26.6496 35.2473 26.996 35.4932Z" fill="#F8F8F8"/>
</g>
</svg>
